<svg viewBox="0 0 32 32" xmlns="http://www.w3.org/2000/svg">
  <!-- Glyph traced from the original brand mark; white apex fading to a
       cyan-lit base. Replaces a 1.5MB SVG that wrapped two 1254px PNGs. -->
  <defs>
    <linearGradient id="stroke" x1="0" y1="0" x2="0" y2="1">
      <stop offset="0" stop-color="#f8f9fb"/>
      <stop offset=".55" stop-color="#f1f9fc"/>
      <stop offset=".82" stop-color="#ddf7fa"/>
      <stop offset="1" stop-color="#c9f7fc"/>
    </linearGradient>
    <linearGradient id="glow" x1="0" y1="0" x2="0" y2="1">
      <stop offset="0" stop-color="#8fdfe8" stop-opacity=".10"/>
      <stop offset=".6" stop-color="#35cfe0" stop-opacity=".35"/>
      <stop offset="1" stop-color="#1fc7dc" stop-opacity=".92"/>
    </linearGradient>
    <filter id="b" x="-40%" y="-40%" width="180%" height="180%">
      <feGaussianBlur stdDeviation="0.7"/>
    </filter>
    <path id="a" fill-rule="evenodd" transform="translate(3.300 4.644) scale(0.028285)" d="M 341.040 21.500 C 340.605 22.050, 335.674 33.453, 330.081 46.840 C 324.487 60.226, 313.012 87.451, 304.579 107.340 C 296.147 127.228, 284.416 154.975, 278.510 169 C 266.387 197.792, 256.977 219.986, 248.194 240.500 C 244.898 248.200, 237.838 264.850, 232.505 277.500 C 227.173 290.150, 215.919 316.700, 207.497 336.500 C 199.075 356.300, 187.829 382.850, 182.507 395.500 C 177.184 408.150, 163.912 439.425, 153.012 465 C 133.793 510.097, 97.084 596.670, 64.179 674.500 C 43.080 724.406, 41.423 728.144, 40.476 727.996 C 40.033 727.926, 38.234 731.489, 36.476 735.913 C 34.719 740.337, 32.822 744.529, 32.261 745.228 C 31.701 745.928, 30.208 749.425, 28.945 753 C 27.682 756.575, 25.890 760.625, 24.963 762 C 22.662 765.413, 21.040 770.717, 20.632 776.158 C 20.046 783.992, 12.653 783.549, 137 783.142 C 221.402 782.866, 247.188 782.499, 249.500 781.540 C 252.273 780.389, 253.592 777.620, 266.955 744.897 C 274.905 725.429, 283.495 704.550, 286.044 698.500 L 290.677 687.500 295.089 686.802 C 303.194 685.521, 606.792 686.043, 607.857 687.341 C 608.739 688.416, 626.845 732.112, 640.533 766.197 C 644.755 776.712, 647.075 781.237, 648.684 782.098 C 652.262 784.013, 868.950 784.014, 874.722 782.099 L 878.944 780.698 878.531 775.727 C 878.282 772.734, 876.700 767.888, 874.554 763.544 C 872.594 759.578, 870.272 753.895, 869.393 750.916 C 868.513 747.937, 866.316 742.800, 864.508 739.500 C 862.701 736.200, 860.654 731.711, 859.959 729.524 C 858.450 724.774, 855.551 719.782, 854.761 720.573 C 853.885 721.448, 849.886 709.994, 850.641 708.772 C 851.008 708.177, 850.874 707.960, 850.342 708.289 C 849.288 708.940, 848.838 707.919, 820.503 640.500 C 809.869 615.200, 789.390 566.600, 774.994 532.500 C 749.101 471.171, 742.034 454.401, 690.290 331.500 C 675.702 296.850, 655.088 248.025, 644.482 223 C 633.876 197.975, 619.916 164.900, 613.460 149.500 C 576.392 61.081, 560.046 22.646, 559.117 21.717 C 557.885 20.485, 342.011 20.271, 341.040 21.500 M 361.091 51.250 C 360.618 52.487, 358.414 57.775, 356.193 63 C 353.972 68.225, 346.536 85.775, 339.668 102 C 332.801 118.225, 323.729 139.600, 319.509 149.500 C 315.289 159.400, 299 197.650, 283.312 234.500 C 238.728 339.223, 192.593 447.305, 131.990 589 C 101.292 660.775, 73.059 726.925, 69.250 736 L 62.323 752.500 64.912 753.132 C 66.335 753.479, 104.850 753.812, 150.500 753.872 L 233.500 753.981 251.756 709.740 C 261.797 685.408, 270.559 664.036, 271.227 662.247 L 272.441 658.994 449.436 659.247 L 626.431 659.500 631.218 671 C 633.851 677.325, 642.635 698.587, 650.738 718.250 L 665.471 754 745.485 753.991 C 789.493 753.987, 827.811 753.705, 830.635 753.366 L 835.769 752.749 834.846 749.403 C 833.534 744.652, 797.007 658.156, 759.719 571.500 C 752.856 555.550, 743.737 534.175, 739.456 524 C 735.175 513.825, 721.006 480.525, 707.969 450 C 666.167 352.119, 649.975 314.087, 638.999 288 C 633.097 273.975, 620.949 245.400, 612.003 224.500 C 603.056 203.600, 592.243 178.175, 587.973 168 C 583.703 157.825, 577.533 143.200, 574.262 135.500 C 570.991 127.800, 561.424 105.188, 553.002 85.250 L 537.689 49 449.820 49 L 361.950 49 361.091 51.250 M 447.026 237.587 C 439.988 253.217, 410.890 320.955, 383.487 385.500 C 374.847 405.850, 358.877 443.425, 347.998 469 C 319.571 535.824, 320 534.799, 320 535.949 C 320 536.678, 359.645 537, 449.500 537 C 520.725 537, 579 536.757, 579 536.460 C 579 535.861, 560.338 491.234, 548.700 464 C 544.586 454.375, 532.795 426.700, 522.498 402.500 C 490.924 328.298, 451.623 236.936, 450.135 234.278 C 449.421 233.002, 448.786 233.678, 447.026 237.587 M 448.691 303.207 C 448.386 303.918, 428.516 350.175, 404.536 406 C 380.557 461.825, 360.678 508.063, 360.362 508.750 C 359.903 509.745, 377.981 510, 448.960 510 L 538.135 510 537.436 507.750 C 536.778 505.629, 502.889 426.021, 478.797 370 C 472.765 355.975, 463.775 335.050, 458.819 323.500 C 448.779 300.101, 449.449 301.444, 448.691 303.207"/>
  </defs>
  <rect width="32" height="32" rx="10.5" fill="#000000"/>
  <use href="#a" fill="url(#glow)" filter="url(#b)"/>
  <use href="#a" fill="url(#stroke)"/>
</svg>
